<?xml version="1.0" standalone="no"?>
<!DOCTYPE svg PUBLIC "-//W3C//DTD SVG 20010904//EN"
 "http://www.w3.org/TR/2001/REC-SVG-20010904/DTD/svg10.dtd">
<svg version="1.0" xmlns="http://www.w3.org/2000/svg"
 width="121.000000pt" height="121.000000pt" viewBox="0 0 121.000000 121.000000"
 preserveAspectRatio="xMidYMid meet">
<metadata>
Created by potrace 1.11, written by Peter Selinger 2001-2013
</metadata>
<g transform="translate(0.000000,121.000000) scale(0.100000,-0.100000)"
fill="#000000" stroke="none">
<path d="M17 1122 c-15 -17 -17 -67 -17 -510 0 -477 1 -493 20 -512 21 -21 46
-18 67 9 7 9 12 48 13 94 l0 77 500 0 500 0 1 -27 c3 -127 5 -135 28 -154 23
-19 51 -14 67 12 4 7 7 149 7 316 0 324 -1 330 -49 337 -17 3 -19 12 -20 77
-2 102 -1 99 -29 99 l-25 0 1 -132 c0 -73 0 -150 0 -170 l-1 -38 -132 0 -133
0 1 55 c1 30 2 60 3 65 1 6 26 10 57 10 91 0 144 38 144 103 -1 79 -43 107
-163 107 -72 0 -85 -3 -89 -17 -2 -10 -3 -87 -2 -170 1 -153 1 -153 -22 -153
-18 0 -26 10 -42 53 -78 205 -94 245 -104 265 -16 31 -46 28 -60 -5 -6 -16
-16 -41 -23 -58 -7 -16 -15 -37 -17 -45 -4 -11 -29 -14 -144 -12 -124 2 -142
0 -157 -15 -24 -27 -27 -66 -8 -92 17 -22 24 -23 133 -23 l116 0 -9 -32 c-5
-17 -9 -32 -9 -33 0 -2 -72 -3 -160 -3 l-160 0 0 248 c0 208 -2 251 -16 270
-18 27 -45 28 -67 4z m933 -242 c25 -25 26 -61 3 -89 -14 -15 -31 -21 -70 -22
-29 -2 -56 0 -59 4 -6 6 -9 71 -5 115 1 8 19 12 56 12 42 0 60 -5 75 -20z
m-334 -135 c6 -24 5 -25 -49 -25 l-56 0 25 62 c13 34 24 69 25 77 1 18 45 -74
55 -114z m40 -107 l13 -38 -100 0 c-54 0 -99 2 -99 4 0 2 7 20 15 40 l16 37
71 -3 71 -3 13 -37z m446 -202 l-4 -31 -499 0 -499 0 0 31 0 31 503 0 503 0
-4 -31z"/>
</g>
</svg>
